# xmcd
#
# Track frame offsets:
#	150
#	12850
#	25737
#	47127
#	59817
#	72297
#	89797
#	107845
#	123327
#	140065
#	158065
#	171400
#	182592
#	197617
#
# Disc length: 2868
#
# Revision: 2
# Processed by: cddbd v1.5.1PL0 Copyright (c) Steve Scherf et al.
# Submitted via: OrangeCD 5.2
# Normalized: r1:DSETVAR1
#
DISCID=cb0b320e
DTITLE=Various Artist - Mr. Music Country 11-94
DYEAR=1994
DGENRE=Country
TTITLE0=Billy Don Burns - It ain't easy
TTITLE1=Hank Flamingo - Tennessee plates
TTITLE2=Matraca Berg - Jolene
TTITLE3=Dennis Robbins - Good news, bad news
TTITLE4=Clay Walker - White place
TTITLE5=Daron Norwood - Travis Tritt - Phantom of the opera
TTITLE6=Jesse Hunter - L.A. Freewa
TTITLE7=Lorrie Morgan - Sammy Kershaw - A good year for the roses
TTITLE8=Billy Joe Shaver - Waylon Jennings - Heart of Texas
TTITLE9=Jamie O'Hara - The cold hard truth
TTITLE10=Michelle Wright - Fastest healing wounder heart
TTITLE11=Mike Henderson - Fountain of youth
TTITLE12=waylon Jennings - No good for me
TTITLE13=Pam Tillis - Mel Tillis - 'Til all the lonely's gone
EXTD=
EXTT0=
EXTT1=
EXTT2=
EXTT3=
EXTT4=
EXTT5=
EXTT6=
EXTT7=
EXTT8=
EXTT9=
EXTT10=
EXTT11=
EXTT12=
EXTT13=
PLAYORDER=
